<svg id="Warstwa_1" data-name="Warstwa 1" xmlns="http://www.w3.org/2000/svg" viewBox="0 0 966.16 118.55"><defs><style>.cls-1{fill:#1e83ec;}.cls-2{fill:#231f20;}.cls-3{fill:#1273eb;}.cls-4{fill:#fff;}.cls-5{fill:#73d7ff;}.cls-6,.cls-7{fill:none;stroke:#1e83ec;stroke-miterlimit:10;stroke-width:4px;}.cls-6{stroke-dasharray:6 11.99;}.cls-7{stroke-dasharray:6 12;}</style></defs><title>7a etap działan</title><path class="cls-1" d="M1014,54.07H969.56a13.19,13.19,0,0,0-13.18,13.18v36.57A13.19,13.19,0,0,0,969.56,117h13.5l7.25,7.25a2.07,2.07,0,0,0,1.46.61,2.11,2.11,0,0,0,1.47-.61l7.25-7.25H1014a13.2,13.2,0,0,0,13.18-13.18V67.25A13.2,13.2,0,0,0,1014,54.07Zm9,49.75a9,9,0,0,1-9,9H999.63a2.07,2.07,0,0,0-1.47.6l-6.39,6.39-6.38-6.39a2.07,2.07,0,0,0-1.47-.6H969.56a9,9,0,0,1-9-9V67.25a9,9,0,0,1,9-9H1014a9,9,0,0,1,9,9Z" transform="translate(-61 -27.52)"/><path class="cls-2" d="M975.44,72.73h-7a.51.51,0,0,0-.52.51v1.4a.52.52,0,0,0,.52.52h2.21v7.1a.52.52,0,0,0,.52.52h1.53a.51.51,0,0,0,.51-.52v-7.1h2.22a.52.52,0,0,0,.52-.52v-1.4A.51.51,0,0,0,975.44,72.73Z" transform="translate(-61 -27.52)"/><path class="cls-2" d="M978.61,82.78a.52.52,0,0,0,.52-.52V79.09h3.44v3.17a.52.52,0,0,0,.52.52h1.52a.52.52,0,0,0,.52-.52v-9a.51.51,0,0,0-.52-.51h-1.52a.51.51,0,0,0-.52.51v3.39h-3.44V73.24a.51.51,0,0,0-.52-.51h-1.52a.51.51,0,0,0-.52.51v9a.52.52,0,0,0,.52.52Z" transform="translate(-61 -27.52)"/><path class="cls-2" d="M991.93,73a.51.51,0,0,0-.47-.31h-1.63a.51.51,0,0,0-.47.31l-4,9a.48.48,0,0,0,0,.49.5.5,0,0,0,.43.24h1.62a.52.52,0,0,0,.48-.31l.77-1.74h3.83l.77,1.74a.51.51,0,0,0,.47.31h1.63a.52.52,0,0,0,.52-.52.48.48,0,0,0-.07-.26Zm-.44,5.24H989.8l.84-1.91Z" transform="translate(-61 -27.52)"/><path class="cls-2" d="M1005,72.73h-1.52a.51.51,0,0,0-.52.51v5.23l-4.31-5.54a.51.51,0,0,0-.41-.2h-1.52a.51.51,0,0,0-.52.51v9a.52.52,0,0,0,.52.52h1.52a.52.52,0,0,0,.52-.52V77.2l4.18,5.38a.54.54,0,0,0,.41.2H1005a.52.52,0,0,0,.52-.52v-9A.51.51,0,0,0,1005,72.73Z" transform="translate(-61 -27.52)"/><path class="cls-2" d="M1012.09,77.23l3.34-3.64a.52.52,0,0,0-.38-.86h-1.94a.55.55,0,0,0-.38.16l-3.23,3.44V73.24a.51.51,0,0,0-.52-.51h-1.52a.52.52,0,0,0-.52.51v9a.52.52,0,0,0,.52.52H1009a.52.52,0,0,0,.52-.52V79.94l.76-.82,2.62,3.45a.52.52,0,0,0,.41.21h1.81a.52.52,0,0,0,.42-.82Z" transform="translate(-61 -27.52)"/><path class="cls-2" d="M986,88.47a.51.51,0,0,0-.45-.27h-1.67a.52.52,0,0,0-.44.25l-2,3.37-2-3.37a.52.52,0,0,0-.44-.25h-1.67a.5.5,0,0,0-.45.27.51.51,0,0,0,0,.52l3.28,5.33v3.42a.51.51,0,0,0,.52.51h1.54a.51.51,0,0,0,.52-.51V94.32L986,89A.51.51,0,0,0,986,88.47Z" transform="translate(-61 -27.52)"/><path class="cls-2" d="M990.59,88a5.16,5.16,0,0,0-3.74,1.49,5.25,5.25,0,0,0,0,7.39,5.47,5.47,0,0,0,7.48,0,5.23,5.23,0,0,0,0-7.39A5.13,5.13,0,0,0,990.59,88Zm0,7.94a2.54,2.54,0,0,1-1.89-.8,2.87,2.87,0,0,1,0-3.91,2.5,2.5,0,0,1,1.89-.8,2.47,2.47,0,0,1,1.89.8,2.84,2.84,0,0,1,0,3.91A2.51,2.51,0,0,1,990.59,95.92Z" transform="translate(-61 -27.52)"/><path class="cls-2" d="M1004.78,88.2h-1.52a.52.52,0,0,0-.52.52v5a2.5,2.5,0,0,1-.49,1.63,1.63,1.63,0,0,1-1.29.54,1.59,1.59,0,0,1-1.28-.54,2.44,2.44,0,0,1-.5-1.63v-5a.51.51,0,0,0-.51-.52h-1.53a.51.51,0,0,0-.51.52v5.06a4.51,4.51,0,0,0,1.22,3.36,4.63,4.63,0,0,0,6.22,0,4.48,4.48,0,0,0,1.23-3.36V88.72A.52.52,0,0,0,1004.78,88.2Z" transform="translate(-61 -27.52)"/><path class="cls-1" d="M133.32,53.58v12a1.57,1.57,0,0,1-1.57,1.57H108a1.58,1.58,0,0,1-1.57-1.57v-12A1.57,1.57,0,0,1,108,52h23.75A1.57,1.57,0,0,1,133.32,53.58Z" transform="translate(-61 -27.52)"/><path class="cls-3" d="M118.8,66.6v.54H108a1.58,1.58,0,0,1-1.57-1.57v-1.7a6.76,6.76,0,0,1,1.35-1.95A6.44,6.44,0,0,1,112.32,60,6.57,6.57,0,0,1,118.8,66.6Z" transform="translate(-61 -27.52)"/><rect class="cls-4" x="23.19" y="24.48" width="15.13" height="15.13"/><rect class="cls-4" x="79.43" y="24.48" width="15.13" height="15.13"/><path class="cls-4" d="M135.6,88v-.28A2.77,2.77,0,0,0,132.82,85h0a2.77,2.77,0,0,0-2.47,1.5l-.31-.09V84.07a3.35,3.35,0,0,0-6.69,0V80.65A3.36,3.36,0,0,0,120,77.29h-.27a3.36,3.36,0,0,0-3.36,3.36V66.49a4,4,0,1,0-8,0v23.4H107a3.28,3.28,0,0,0-3.28,3.28V95.7A15.3,15.3,0,0,0,109.83,108c2.45,1.83,4.74,4.17,4.89,6.53v3.81H135.6V88Z" transform="translate(-61 -27.52)"/><path class="cls-4" d="M135.6,88v30.26H133V87.75a2.77,2.77,0,0,0-1.48-2.46,2.72,2.72,0,0,1,1.3-.32h0a2.77,2.77,0,0,1,2.78,2.78V88Z" transform="translate(-61 -27.52)"/><rect class="cls-1" x="51.88" y="88.49" width="24.77" height="7.16"/><rect class="cls-5" x="51.88" y="93.17" width="24.77" height="2.48"/><path d="M83.59,68a1.56,1.56,0,0,0,.92.18c.36,0,14.87,0,15.08,0a1.09,1.09,0,0,0,.81-1.05c0-.06,0-14.49,0-15.11a1.1,1.1,0,0,0-1.14-1.09h-15A1.1,1.1,0,0,0,83.12,52c0,.18,0,15.05,0,15.11A1.09,1.09,0,0,0,83.59,68Zm9.69-8.46,5-5v9.92Zm3.44,6.49H86.79l5-5Zm-5-8-5-5h9.93Zm-1.53,1.52-5,5V54.61Z" transform="translate(-61 -27.52)"/><path d="M156.46,67.73a1.56,1.56,0,0,0,.18-.92c0-.37,0-15.11-.18-15.4a1.08,1.08,0,0,0-.91-.48H140.43A1.09,1.09,0,0,0,139.36,52v5.17a1.08,1.08,0,1,0,2.15,0V54.61l5,5-5,5V62a1.08,1.08,0,1,0-2.15,0v5.14a1.09,1.09,0,0,0,1.08,1.08c.05,0,15.1,0,15.29,0A1.1,1.1,0,0,0,156.46,67.73Zm-6.94-8.16,5-5v9.92ZM143,53.08H153l-5,5Zm9.93,13H143l5-5Z" transform="translate(-61 -27.52)"/><path d="M118.16,63.77a1.06,1.06,0,0,0,.76-.31l6.67-6.67a1.07,1.07,0,0,0,0-1.52,1.09,1.09,0,0,0-1.53,0l-5.9,5.9-2.47-2.47a1.07,1.07,0,0,0-1.52,0,1.09,1.09,0,0,0,0,1.53l3.23,3.23A1.07,1.07,0,0,0,118.16,63.77Z" transform="translate(-61 -27.52)"/><path d="M148.22,71.66a1.08,1.08,0,0,0-1.29.81,15.91,15.91,0,0,1-9,10,1.07,1.07,0,0,0,.43,2.06,1.11,1.11,0,0,0,.43-.09A17.9,17.9,0,0,0,149,73,1.08,1.08,0,0,0,148.22,71.66Z" transform="translate(-61 -27.52)"/><path d="M101.87,82.46a15.69,15.69,0,0,1-9-10,1.09,1.09,0,0,0-1.29-.81A1.07,1.07,0,0,0,90.73,73,17.9,17.9,0,0,0,101,84.43a.92.92,0,0,0,.43.09,1.08,1.08,0,0,0,.43-2.06Z" transform="translate(-61 -27.52)"/><path d="M137.66,114.93h-1V87.75a3.86,3.86,0,0,0-3.86-3.86h0a3.89,3.89,0,0,0-1.7.39v-.2a4.42,4.42,0,0,0-6.7-3.79A4.44,4.44,0,0,0,120,76.22h-.27a4.44,4.44,0,0,0-2.28.63V68.21h14.31a2.65,2.65,0,0,0,2.65-2.65v-12a2.65,2.65,0,0,0-2.65-2.64H108a2.64,2.64,0,0,0-2.64,2.64v12a2.66,2.66,0,0,0,1.89,2.54V73a1.08,1.08,0,1,0,2.15,0V66.49a2.94,2.94,0,1,1,5.88,0V80.65a1.08,1.08,0,0,0,2.16,0,2.28,2.28,0,0,1,2.28-2.28H120a2.29,2.29,0,0,1,2.28,2.28v3.42a1.08,1.08,0,1,0,2.15,0,2.27,2.27,0,0,1,4.53,0v2.31a1.09,1.09,0,0,0,.77,1l.31.09A1.08,1.08,0,0,0,131.3,87a1.69,1.69,0,0,1,1.51-.91h0a1.71,1.71,0,0,1,1.71,1.7v27.18H115.8v-.45s0,0,0-.06c-.14-2.33-1.93-4.8-5.31-7.33a14.28,14.28,0,0,1-5.65-11.39V93.17A2.21,2.21,0,0,1,107,91h.22v5.6a1.08,1.08,0,1,0,2.15,0V77.84a1.08,1.08,0,1,0-2.15,0v11H107a4.36,4.36,0,0,0-4.36,4.36V95.7a16.45,16.45,0,0,0,6.52,13.11c2.79,2.1,4.33,4.07,4.45,5.71v.41h-.76A1.08,1.08,0,0,0,111.8,116v7.16a1.08,1.08,0,0,0,1.08,1.08h14.69a1,1,0,0,0,.78-.34,1.06,1.06,0,0,0,.3-.79s0,0,0-.06a1.07,1.07,0,0,0-1.11-1H114v-5h22.62v5h-4a.89.89,0,0,0-.23,0,1.07,1.07,0,0,0-1,1.06v.06a1.08,1.08,0,0,0,1.08,1h5.27a1.08,1.08,0,0,0,1.07-1.08V116A1.07,1.07,0,0,0,137.66,114.93ZM112.34,61.4a5.1,5.1,0,0,0-4.83,3.47V53.57a.49.49,0,0,1,.49-.49h23.75a.5.5,0,0,1,.5.49v12a.5.5,0,0,1-.5.5H117.42A5.1,5.1,0,0,0,112.34,61.4Z" transform="translate(-61 -27.52)"/><path d="M114.76,119v.64a1.08,1.08,0,1,0,2.15,0V119a1.08,1.08,0,1,0-2.15,0Z" transform="translate(-61 -27.52)"/><path class="cls-1" d="M451.68,64.33a5.14,5.14,0,0,0-3.85,1.5L421,92.65A5.54,5.54,0,0,0,419.53,95c-.78,2.5-1.52,5-2.26,7.51a.86.86,0,0,0,1.08,1.1l.28-.08c2.14-.64,4.27-1.3,6.41-1.91a7.64,7.64,0,0,0,3.43-2q13-13.08,26.13-26.14c.17-.17.35-.33.51-.51a4.89,4.89,0,0,0,.95-5.51A4.84,4.84,0,0,0,451.68,64.33Zm-39.46,7.88H397.7c-.31,0-.61,0-.91,0a1.8,1.8,0,0,0-.48,3.5,3.44,3.44,0,0,0,1,.11q14.89,0,29.81,0a4.36,4.36,0,0,0,.62,0,1.79,1.79,0,0,0,1.5-2.29,1.82,1.82,0,0,0-1.95-1.3Zm0-9.69H396.75a1.8,1.8,0,0,0-1.59,2.32,1.84,1.84,0,0,0,2,1.28h30.46a1.79,1.79,0,0,0,1.67-1.52,1.77,1.77,0,0,0-1.22-2,2.9,2.9,0,0,0-.83-.1Zm12.7,19.37H397.2a4.35,4.35,0,0,0-.51,0,1.78,1.78,0,0,0-1.59,1.59,1.82,1.82,0,0,0,2,2H421a.87.87,0,0,0,.53-.22c1.06-1,2.1-2.08,3.15-3.13Zm-9.2,9.69H396.79a1.81,1.81,0,0,0-.49,3.51,3.53,3.53,0,0,0,1,.11h16.62a.94.94,0,0,0,.29,0,.41.41,0,0,0,.23-.17c.44-1.13.87-2.25,1.3-3.38A.59.59,0,0,0,415.68,91.58Zm-3.1,9.68H397.22a4.87,4.87,0,0,0-.54,0,1.79,1.79,0,0,0-1.58,1.61,1.81,1.81,0,0,0,2,2q7.65,0,15.32,0l.42,0A5.87,5.87,0,0,1,412.58,101.26Z" transform="translate(-61 -27.52)"/><path class="cls-1" d="M385.13,54l.13-.33a2.36,2.36,0,0,1,2.19-1.63h49.26a2.38,2.38,0,0,1,2.49,2,3.2,3.2,0,0,1,0,.54q0,6.32,0,12.63a.83.83,0,0,1-.23.56c-1.39,1.42-2.8,2.83-4.21,4.23l-.28.26V56.84H389.91v62.53h44.57v-.47q0-9.06,0-18.13a.88.88,0,0,1,.29-.7Q436.83,98,438.88,96l.35-.33v25.87a2.41,2.41,0,0,1-1.91,2.61s0,0-.05,0H387.1a9.45,9.45,0,0,1-1.14-.59,2.48,2.48,0,0,1-.83-1.37Z" transform="translate(-61 -27.52)"/><path class="cls-1" d="M385.13,122.18a2.48,2.48,0,0,0,.83,1.37,9.45,9.45,0,0,0,1.14.59h-2Z" transform="translate(-61 -27.52)"/><path d="M451.68,64.33a4.84,4.84,0,0,1,4.38,3.07,4.89,4.89,0,0,1-.95,5.51c-.16.18-.34.34-.51.51q-13.08,13.06-26.13,26.14a7.64,7.64,0,0,1-3.43,2c-2.14.61-4.27,1.27-6.41,1.91l-.28.08a.86.86,0,0,1-1.08-1.1c.74-2.51,1.48-5,2.26-7.51A5.54,5.54,0,0,1,421,92.65l26.83-26.82A5.14,5.14,0,0,1,451.68,64.33Z" transform="translate(-61 -27.52)"/><path d="M412.22,72.21h15a1.82,1.82,0,0,1,1.95,1.3,1.79,1.79,0,0,1-1.5,2.29,4.36,4.36,0,0,1-.62,0q-14.91,0-29.81,0a3.44,3.44,0,0,1-1-.11,1.8,1.8,0,0,1,.48-3.5c.3,0,.6,0,.91,0Z" transform="translate(-61 -27.52)"/><path d="M412.18,62.52h15a2.9,2.9,0,0,1,.83.1,1.77,1.77,0,0,1,1.22,2,1.79,1.79,0,0,1-1.67,1.52H397.13a1.84,1.84,0,0,1-2-1.28,1.8,1.8,0,0,1,1.59-2.32h15.43Z" transform="translate(-61 -27.52)"/><path d="M424.88,81.89l-.24.27c-1.05,1-2.09,2.1-3.15,3.13a.87.87,0,0,1-.53.22H397.12a1.82,1.82,0,0,1-2-2,1.78,1.78,0,0,1,1.59-1.59,4.35,4.35,0,0,1,.51,0h27.68Z" transform="translate(-61 -27.52)"/><path d="M415.68,91.58a.59.59,0,0,1,0,.07c-.43,1.13-.86,2.25-1.3,3.38a.41.41,0,0,1-.23.17.94.94,0,0,1-.29,0H397.27a3.53,3.53,0,0,1-1-.11,1.81,1.81,0,0,1,.49-3.51h18.89Z" transform="translate(-61 -27.52)"/><path d="M412.58,101.26a5.87,5.87,0,0,0,.26,3.61l-.42,0q-7.67,0-15.32,0a1.81,1.81,0,0,1-2-2,1.79,1.79,0,0,1,1.58-1.61,4.87,4.87,0,0,1,.54,0h15.36Z" transform="translate(-61 -27.52)"/><path d="M729.09,125.7a15,15,0,1,1,15.25-15A15.13,15.13,0,0,1,729.09,125.7Zm0-26.51a11.53,11.53,0,1,0,11.73,11.53A11.64,11.64,0,0,0,729.09,99.19Z" transform="translate(-61 -27.52)"/><path class="cls-1" d="M706,121H683a9.73,9.73,0,0,1-9.81-9.64V67.52A9.73,9.73,0,0,1,683,57.88h6.71a2.63,2.63,0,1,1,0,5.26H683a4.43,4.43,0,0,0-4.46,4.38v43.81a4.42,4.42,0,0,0,4.46,4.38h23a2.63,2.63,0,1,1,0,5.26Z" transform="translate(-61 -27.52)"/><path class="cls-1" d="M733.72,80.76a2.59,2.59,0,0,1-2.61-2.57V67.61a4.32,4.32,0,0,0-4.36-4.28h-6.51a2.57,2.57,0,1,1,0-5.14h6.51a9.52,9.52,0,0,1,9.59,9.42V78.19A2.59,2.59,0,0,1,733.72,80.76Z" transform="translate(-61 -27.52)"/><path class="cls-1" d="M444.07,55.1H431.22a4.05,4.05,0,0,1-4.08-4V46.49a1.73,1.73,0,0,1,1.75-1.72h2.58a6.46,6.46,0,0,1,12.36,0h2.58a1.73,1.73,0,0,1,1.75,1.72v4.59A4.05,4.05,0,0,1,444.07,55.1Zm-13.43-6.89v2.87a.58.58,0,0,0,.58.58h12.85a.58.58,0,0,0,.59-.58V48.21h-2.34a1.73,1.73,0,0,1-1.75-1.72,2.92,2.92,0,0,0-5.84,0A1.74,1.74,0,0,1,433,48.21Z" transform="translate(-61 -27.52)"/><path d="M716.27,81.86H684.64a2.46,2.46,0,1,1,0-4.91h31.63a2.46,2.46,0,1,1,0,4.91Z" transform="translate(-61 -27.52)"/><path d="M708.48,91.36H684.64a2.45,2.45,0,1,1,0-4.9h23.84a2.45,2.45,0,1,1,0,4.9Z" transform="translate(-61 -27.52)"/><path d="M702.75,101.18H684.64a2.46,2.46,0,1,1,0-4.91h18.11a2.46,2.46,0,1,1,0,4.91Z" transform="translate(-61 -27.52)"/><path d="M727,116.63a1.67,1.67,0,0,1-1.16-.48l-4.36-4.37a1.63,1.63,0,1,1,2.31-2.31l3.13,3.12,6.48-7.4a1.63,1.63,0,1,1,2.46,2.15l-7.63,8.73a1.66,1.66,0,0,1-1.18.56Z" transform="translate(-61 -27.52)"/><circle class="cls-6" cx="59.27" cy="59.27" r="57.27"/><line class="cls-7" x1="143.03" y1="56.08" x2="304.38" y2="56.08"/><line class="cls-7" x1="573.71" y1="56.09" x2="412.32" y2="56.09"/><line class="cls-7" x1="864.19" y1="56.09" x2="706.9" y2="56.35"/></svg>